<?xml version="1.0" encoding="utf-8"?>
<!-- Generator: Adobe Illustrator 23.0.2, SVG Export Plug-In . SVG Version: 6.00 Build 0)  -->
<svg version="1.1" id="Layer_1" xmlns="http://www.w3.org/2000/svg" xmlns:xlink="http://www.w3.org/1999/xlink" x="0px" y="0px"
	 viewBox="0 0 500 500" style="enable-background:new 0 0 500 500;" xml:space="preserve">
<style type="text/css">
	.st0{fill:#383838;}
</style>
<g>
	<g>
		<path class="st0" d="M144.8,281.4c0.5,1.6,1.1,3.2,1.7,4.8l24.3-31.6c-0.2-2.6-0.4-5.2-0.4-7.8c0-45.7,37.1-82.7,82.8-82.7
			c3.3,0,6.5,0.2,9.7,0.6l31.2-23.9c-2-0.8-4.1-1.6-6.2-2.2l-14-55.9L253.2,0l-20.7,82.7l-14,55.9c-10.5,3.4-20.4,8.2-29.4,14.3
			l-32.7-19.6l-41.4-24.8l24.8,41.3l19.6,32.5c-6.3,9.1-11.3,19.1-14.7,29.8l-56,14L6,246.8l82.8,20.7L144.8,281.4z"/>
	</g>
	<g>
		<path class="st0" d="M361.2,213.8c-0.5-1.6-1.1-3.2-1.7-4.8l-24.3,31.6c0.2,2.6,0.4,5.2,0.4,7.8c0,45.7-37.1,82.7-82.8,82.7
			c-3.3,0-6.5-0.2-9.7-0.6l-31.2,23.9c2,0.8,4.1,1.6,6.2,2.2l14,55.9l20.7,82.7l20.7-82.7l14-55.9c10.5-3.4,20.4-8.2,29.4-14.3
			l32.7,19.6l41.4,24.8l-24.8-41.3l-19.6-32.5c6.3-9.1,11.3-19.1,14.7-29.8l56-14l82.8-20.7l-82.8-20.7L361.2,213.8z"/>
	</g>
	<path class="st0" d="M358.6,109.4L217.2,217.7l0,0L108.6,358.9L0,500l141.4-108.4l141.4-108.4l0,0l108.6-141.1L500,0.9L358.6,109.4
		z M253.2,267.5c-11.4,0-20.7-9.3-20.7-20.7c0-11.4,9.3-20.7,20.7-20.7c11.4,0,20.7,9.3,20.7,20.7
		C273.9,258.2,264.6,267.5,253.2,267.5z"/>
</g>
</svg>
