<?xml version="1.0" encoding="utf-8"?>
<!-- Generator: Adobe Illustrator 23.0.2, SVG Export Plug-In . SVG Version: 6.00 Build 0)  -->
<svg version="1.1" id="Layer_1" xmlns="http://www.w3.org/2000/svg" xmlns:xlink="http://www.w3.org/1999/xlink" x="0px" y="0px"
	 viewBox="0 0 500 500" style="enable-background:new 0 0 500 500;" xml:space="preserve">
<style type="text/css">
	.st0{fill:#383838;}
</style>
<g>
	<g>
		<path class="st0" d="M164.9,317.5c0-79.3,80.2-143.6,179.2-143.6c66.1,0,123.7,28.7,154.7,71.4c0.7-6.3,1.2-12.6,1.2-19.1
			c0-110.6-111.9-200.3-250-200.3S0,115.6,0,226.2c0,76.5,53.7,142.9,132.5,176.6c-0.8,9.2-6.2,47.7-44.9,67.1c0,0,53,24.8,123.3-46
			c5.2,0.7,10.4,1.4,15.7,1.8C188.8,399.3,164.9,360.6,164.9,317.5z"/>
		<path class="st0" d="M352.1,208.9c-81.7,0-147.9,53.1-147.9,118.5c0,65.4,66.2,118.5,147.9,118.5c7.9,0,15.6-0.6,23.1-1.6
			c41.6,41.9,72.9,27.3,72.9,27.3c-22.8-11.4-26.1-34-26.5-39.6c46.6-19.9,78.4-59.3,78.4-104.6C500,262,433.8,208.9,352.1,208.9z"
			/>
	</g>
</g>
</svg>
