<?xml version="1.0" encoding="utf-8"?>
<!-- Generator: Adobe Illustrator 23.0.2, SVG Export Plug-In . SVG Version: 6.00 Build 0)  -->
<svg version="1.1" id="Layer_1" xmlns="http://www.w3.org/2000/svg" xmlns:xlink="http://www.w3.org/1999/xlink" x="0px" y="0px"
	 viewBox="0 0 500 500" style="enable-background:new 0 0 500 500;" xml:space="preserve">
<style type="text/css">
	.st0{fill:#383838;}
</style>
<g>
	<g>
		<path class="st0" d="M269.6,320.9h-39.6c-0.4,0-0.7-0.3-0.7-0.7v-73.8c0-0.4,0.3-0.7,0.7-0.7l39.6,0c0.4,0,0.7,0.3,0.7,0.7v73.8
			C270.3,320.6,270,320.9,269.6,320.9z"/>
		<path class="st0" d="M305.7,27.3H193.4c-17.7,0-32.2,14.5-32.2,32.2v18.9h29.8V61.8c0-2.7,2.2-4.9,4.9-4.9h107.4
			c2.7,0,4.9,2.2,4.9,4.9v16.6h29.8V59.6C337.9,41.8,323.4,27.3,305.7,27.3z"/>
		<path class="st0" d="M428.7,275.4c0,0,51.4-1,71.3-57v-98C500,107,489,96,475.6,96H24.4C11,96,0,107,0,120.4v98
			c19.9,56,71.3,57,71.3,57h141.4V248c0-10.7,8.8-19.5,19.5-19.5h35.2c10.7,0,19.5,8.8,19.5,19.5v70.3c0,10.7-8.8,19.5-19.5,19.5
			h-35.2c-10.7,0-19.5-8.8-19.5-19.5v-25.6c0,0-98.1,0-141.7,0S0,255.2,0,255.2v193c0,13.4,11,24.4,24.4,24.4h451.2
			c13.4,0,24.4-11,24.4-24.4v-193c0,0-27.3,37.4-71,37.4c-43.6,0-141.7,0-141.7,0v-17.3H428.7z"/>
	</g>
</g>
</svg>
