<?xml version="1.0" encoding="utf-8"?>
<!-- Generator: Adobe Illustrator 23.0.2, SVG Export Plug-In . SVG Version: 6.00 Build 0)  -->
<svg version="1.1" id="Layer_1" xmlns="http://www.w3.org/2000/svg" xmlns:xlink="http://www.w3.org/1999/xlink" x="0px" y="0px"
	 viewBox="0 0 500 500" style="enable-background:new 0 0 500 500;" xml:space="preserve">
<style type="text/css">
	.st0{fill:#383838;}
</style>
<g>
	<g>
		<g>
			<path class="st0" d="M497.1,182.6c-2.4-3-6.1-4.7-9.9-4.7h-48.7c-12-31.7-27.7-62.7-45.4-74.4c-61.5-40.5-224.7-40.5-286.2,0
				c-17.8,11.7-33.4,42.8-45.4,74.4H12.8c-3.9,0-7.5,1.7-9.9,4.7c-2.4,3-3.4,6.9-2.6,10.7l7.2,34.9c1.2,6,6.5,10.2,12.5,10.2h14.4
				c-13.9,16.1-20.7,36.3-20.8,56.5c-0.1,25,9.4,47.6,26.7,63.6c0.2,0.2,0.4,0.3,0.6,0.4v48.9c0,10.6,8.6,19.2,19.2,19.2h44.9
				c10.6,0,19.2-8.6,19.2-19.2v-19.6h251.4v19.6c0,10.6,8.6,19.2,19.2,19.2h44.9c10.6,0,19.2-8.6,19.2-19.2v-47.9
				c18.4-16.9,27.2-40.1,27.3-63.2c0.1-20.9-7-41.9-21.7-58.3H480c6.1,0,11.3-4.3,12.5-10.2l7.2-34.9
				C500.5,189.5,499.6,185.6,497.1,182.6z M128,135.5c49-32.3,195-32.3,244,0c9.5,6.2,21.8,31.5,33,62.4H95
				C106.2,167,118.5,141.8,128,135.5z M70.6,299.7c0-20.9,16.9-37.8,37.8-37.8c20.9,0,37.8,16.9,37.8,37.8s-16.9,37.8-37.8,37.8
				C87.5,337.5,70.6,320.5,70.6,299.7z M392.1,337.5c-20.9,0-37.8-16.9-37.8-37.8s16.9-37.8,37.8-37.8c20.9,0,37.8,16.9,37.8,37.8
				S413,337.5,392.1,337.5z"/>
		</g>
	</g>
</g>
</svg>
