<?xml version="1.0" encoding="utf-8"?>
<!-- Generator: Adobe Illustrator 23.0.2, SVG Export Plug-In . SVG Version: 6.00 Build 0)  -->
<svg version="1.1" id="Layer_1" xmlns="http://www.w3.org/2000/svg" xmlns:xlink="http://www.w3.org/1999/xlink" x="0px" y="0px"
	 viewBox="0 0 500 500" style="enable-background:new 0 0 500 500;" xml:space="preserve">
<style type="text/css">
	.st0{fill:#383838;}
</style>
<g>
	<g>
		<path class="st0" d="M17.5,264.9c28.6,27.8,61.3,52.3,97.3,72.7c-0.6-8.5-1.1-17.1-1.3-25.8c-0.7-30.6,1.3-61.3,6.1-91.8
			C83.4,231.6,49.2,246.7,17.5,264.9z"/>
		<path class="st0" d="M136,349.1c25.3,12.9,52,23.9,79.8,32.7c2,0.6,4,1.3,6,1.9c5.2-10.3,15.9-17.4,28.2-17.4c2.4,0,4.8,0.3,7,0.8
			c27.9-47.9,43.6-98.5,46.5-148.9c-10.1-3.7-17.8-12.4-20.1-23.1c-46.6-0.5-94.8,5.5-142.6,18.6C132.9,259.9,131.5,305.5,136,349.1
			z"/>
		<path class="st0" d="M123.5,198c4.1-20.7,9.4-41.4,16-61.9c1.1-3.5,2.3-7,3.5-10.5c-6.8-5.6-11.2-13.9-11.5-23.3
			c-23.1-7.2-46.4-12.8-69.9-16.7C23.9,128.9,0.7,185.2,0,247c1,1.1,2,2.2,3.1,3.3C40.4,228.2,80.7,210.7,123.5,198z"/>
		<path class="st0" d="M163.1,132.7c-0.5,0-0.9,0-1.4,0c-1.1,3.1-2.1,6.3-3.2,9.5c-5.3,16.6-9.8,33.2-13.4,49.7
			c44.3-11.3,89.3-17,133.9-16.9c-28.5-20.4-59.6-38-92.8-52.5C180.4,128.9,172.2,132.7,163.1,132.7z"/>
		<path class="st0" d="M117.2,361.8c-23-12.3-44.9-26.3-65.7-41.8c-17.9-13.4-34.6-27.7-50-42.9c9.7,89.7,66.8,165.2,145.8,200.9
			c-0.7-1.7-1.4-3.4-2.1-5.2C131.4,437.7,122,400.5,117.2,361.8z"/>
		<path class="st0" d="M344,199.6c-0.3,0.8-0.6,1.6-1,2.4c26.6,25.1,49.7,52.7,68.9,82.4c14.4,22.2,26.6,45.5,36,69.2
			c4.4,10.9,8.2,21.9,11.4,33c25.3-38.7,40.2-84.9,40.6-134.6C454,225.3,400.8,207.4,344,199.6z"/>
		<path class="st0" d="M274.9,417.4c-5.8,7.4-14.8,12.2-24.9,12.2c-3.6,0-7.1-0.6-10.3-1.7C222,450.1,202,470.9,179.8,490
			c22.3,6.5,45.8,10,70.2,10c70.8,0,134.7-29.4,180.2-76.7c-18.9,2.2-38.2,3.3-57.6,3.3C340,426.6,307.4,423.5,274.9,417.4z"/>
		<path class="st0" d="M312.1,115c4,14.1,7,28.4,9,42.7c11.3,2.4,20.3,10.9,23.6,21.8c25.2,3.4,49.8,8.7,73.7,15.8
			c28.6,8.6,55.7,19.8,80.8,33.5C488.4,101.1,381.6,0.6,251.3,0c7.2,8.7,14,17.8,20.2,27.1C289.5,54.2,303.2,83.8,312.1,115z"/>
		<path class="st0" d="M163.1,69.5c0.9,0,1.7,0,2.6,0.1c10.7-22.6,22.8-44.4,36.4-65.1C154.7,13.8,112,36.4,78.3,68.3
			c19.7,3.8,39.4,8.8,58.8,14.8C142.8,74.9,152.3,69.5,163.1,69.5z"/>
		<path class="st0" d="M194.7,101.1c0,1.1-0.1,2.2-0.2,3.3c36.2,15.8,70.2,35.4,101.5,58.4c1.6-1.2,3.4-2.2,5.2-3
			c-1.9-13.2-4.6-26.4-8.3-39.4c-8.3-29.2-21.1-56.9-38-82.2C246.5,25.8,237.4,14,227.4,3c-16.2,23.1-30.8,48.1-43.4,74.6
			C190.6,83.3,194.7,91.8,194.7,101.1z"/>
		<path class="st0" d="M329.3,216.5c-1.8,1-3.8,1.8-5.8,2.4c-0.9,15.3-2.9,30.6-6,46c-4.9,24.4-12.6,48.7-23,72.4
			c-5.9,13.6-12.8,27.1-20.4,40.2c4.7,5.5,7.5,12.7,7.5,20.5c0,0.1,0,0.2,0,0.3c30.3,5.5,60.7,8.3,91,8.3c24,0,47.5-1.8,70.2-5.2
			c-9.5-36.1-25.5-71.8-47.7-106.1C376.6,266.8,354.5,240.3,329.3,216.5z"/>
		<path class="st0" d="M223.8,415.6c-2.4-3.5-4.1-7.6-4.9-11.9c-3.1-0.9-6.1-1.9-9.2-2.8c-24.4-7.8-48-17.1-70.7-28
			c5.6,35.7,15.2,69.9,28.5,101.4C188.2,456.3,207.1,436.7,223.8,415.6z"/>
	</g>
</g>
</svg>
