<?xml version="1.0" encoding="utf-8"?>
<!-- Generator: Adobe Illustrator 23.0.2, SVG Export Plug-In . SVG Version: 6.00 Build 0)  -->
<svg version="1.1" id="Layer_1" xmlns="http://www.w3.org/2000/svg" xmlns:xlink="http://www.w3.org/1999/xlink" x="0px" y="0px"
	 viewBox="0 0 500 500" style="enable-background:new 0 0 500 500;" xml:space="preserve">
<style type="text/css">
	.st0{fill:#383838;}
</style>
<path class="st0" d="M260.6,7.1l67.9,144.7c1.7,3.5,5,6,8.8,6.6l152.8,23.3c9.4,1.4,13.2,12.9,6.6,19.7L385.4,315.5
	c-2.6,2.7-3.8,6.4-3.2,10L408.4,486c1.6,9.6-8.6,16.8-17.2,12.1l-135.6-74.9c-3.5-1.9-7.8-1.9-11.3,0l-135.6,74.9
	c-8.5,4.7-18.7-2.5-17.2-12.1l26.2-160.4c0.6-3.7-0.6-7.4-3.2-10L3.3,201.5c-6.6-6.8-2.8-18.2,6.6-19.7l152.8-23.3
	c3.8-0.6,7.1-3.1,8.8-6.6L239.4,7.1C243.6-1.8,256.4-1.8,260.6,7.1z"/>
</svg>
