<?xml version="1.0" encoding="utf-8"?>
<!-- Generator: Adobe Illustrator 23.0.2, SVG Export Plug-In . SVG Version: 6.00 Build 0)  -->
<svg version="1.1" id="Layer_1" xmlns="http://www.w3.org/2000/svg" xmlns:xlink="http://www.w3.org/1999/xlink" x="0px" y="0px"
	 viewBox="0 0 500 500" style="enable-background:new 0 0 500 500;" xml:space="preserve">
<style type="text/css">
	.st0{fill:#383838;}
</style>
<g>
	<path class="st0" d="M500,255.5c0-34.5-42-64.9-106.2-83.4c15.9-64.9,10.3-116.5-19.6-133.6c-29.7-17-76.6,3.9-124.2,49.8
		c-6.9-6.7-13.8-12.8-20.6-18.3c1.4-3.8,2.2-7.9,2.2-12.2c0-20-16.2-36.2-36.2-36.2c-11.4,0-21.4,5.3-28,13.5
		c-15.8-4.1-30-3.3-41.5,3.3C96,55.5,90.4,107.2,106.3,172.1C42,190.5,0,221,0,255.5c0,34.5,42,64.9,106.2,83.4
		c-1.1,4.4-2,8.7-2.9,12.9c-0.8,0-1.5-0.2-2.3-0.2c-20,0-36.2,16.2-36.2,36.2c0,19.3,15.1,34.9,34.1,36c3.2,23,12,40.1,26.9,48.7
		c29.7,17,76.6-3.9,124.2-49.8c47.6,45.9,94.4,66.9,124.1,49.9c29.9-17.1,35.5-68.7,19.7-133.7c12.3-3.5,23.8-7.5,34.3-11.8
		c6.6,9.4,17.4,15.5,29.7,15.5c20,0,36.2-16.2,36.2-36.2c0-7.3-2.2-14-5.9-19.7C495.8,276.8,500,266.4,500,255.5z M367.8,49.3
		c25.8,14.8,29.7,60.8,14.8,119.8c-22.8-5.8-48.1-10.2-75-12.8c-16-22.7-32.8-42.9-49.6-60.1C300.9,54.1,342.2,34.6,367.8,49.3z
		 M327.9,299.9c-8.7,15.2-17.8,29.6-27.1,43.2c-16.3,1.3-33.2,2.1-50.6,2.1c-17.5,0-34.6-0.7-51-2.1c-9.3-13.5-18.3-27.8-26.9-42.9
		c-8.7-15.2-16.5-30.3-23.5-45.3c6.9-14.6,14.5-29.4,23-44.3c8.7-15.2,17.8-29.6,27.1-43.1c16.5-1.4,33.6-2.1,51.2-2.1
		c17.5,0,34.5,0.7,50.9,2.1c9.4,13.7,18.6,28.2,27.3,43.5c8.4,14.8,16.1,29.5,22.9,44C344.3,269.7,336.5,284.8,327.9,299.9z
		 M357.8,269.4c9.2,21.2,16.6,41.7,22.1,61c-19.4,4.8-40.7,8.6-63.4,11.1c7.5-11.3,14.9-23.1,21.9-35.4
		C345.5,293.9,351.9,281.6,357.8,269.4z M208.3,356c13.6,0.9,27.5,1.4,41.7,1.4c14.2,0,28.1-0.5,41.6-1.4
		c-13.7,18.7-27.7,35.6-41.7,50.1C235.9,391.5,221.9,374.7,208.3,356z M183.4,341.5c-22.7-2.5-44-6.3-63.4-11.1
		c5.5-19.3,12.9-39.9,22.1-61c5.9,12.2,12.3,24.4,19.3,36.7C168.5,318.4,175.9,330.2,183.4,341.5z M142.5,240.9
		c-9.2-21.1-16.5-41.6-22-60.9c19.3-4.8,40.6-8.5,63.4-11c-7.7,11.5-15.1,23.4-22.3,36C154.6,216.9,148.3,228.9,142.5,240.9z
		 M250,104.1c14.2,14.7,28.5,31.8,42.3,50.9c-13.8-1-27.9-1.5-42.3-1.5c-14.4,0-28.6,0.5-42.3,1.5C221.5,136,235.8,118.9,250,104.1z
		 M338.5,204.9c-7.2-12.5-14.6-24.6-22.3-36c22.8,2.5,44.1,6.2,63.5,11c-5.5,19.4-12.9,39.9-22.1,61.1
		C351.7,229,345.4,217,338.5,204.9z M132.5,49.5c8.2-4.7,18-5.9,29-3.9c-1.4,3.9-2.3,8-2.3,12.3c0,20,16.2,36.2,36.2,36.2
		c11.7,0,22-5.6,28.6-14.2c6,5,12,10.4,18,16.4c-16.8,17.2-33.6,37.4-49.7,60.1c-26.9,2.6-52.2,6.9-74.9,12.8
		C102.8,110.2,106.8,64.2,132.5,49.5z M12.8,255.2c0-29.6,37.9-55.9,96.2-72.3c6.3,23,15.2,47.5,26.5,72.5
		c-11.3,24.9-20.2,49.2-26.5,72.1C50.7,311.2,12.8,284.9,12.8,255.2z M131.9,461.2c-11.8-6.8-19.1-20.2-22-38.4
		c15.6-4,27.3-18.1,27.3-35c0-15.4-9.6-28.4-23.1-33.7c0.9-4,1.8-8.1,2.8-12.3c22.9,5.9,48.3,10.3,75.5,12.9
		c15.9,22.5,32.6,42.6,49.2,59.7C198.8,456.4,157.5,475.8,131.9,461.2z M368.1,461.5c-25.6,14.6-66.9-4.9-109.9-47
		c16.7-17.1,33.4-37.2,49.4-59.8c27.1-2.6,52.6-7,75.5-12.9C397.8,400.7,393.8,446.8,368.1,461.5z M390.8,327.6
		c-6.3-22.9-15.2-47.2-26.4-72.1c11.4-25.1,20.3-49.6,26.6-72.7c58.5,16.4,96.4,42.7,96.4,72.4c0,7.8-2.6,15.4-7.6,22.6
		c-6.1-4.8-13.8-7.8-22.2-7.8c-20,0-36.2,16.2-36.2,36.2c0,3.7,0.7,7.1,1.7,10.4C413.2,320.7,402.4,324.4,390.8,327.6z"/>
	<circle class="st0" cx="250" cy="255.3" r="57.1"/>
</g>
</svg>
