<?xml version="1.0" encoding="utf-8"?>
<!-- Generator: Adobe Illustrator 23.0.2, SVG Export Plug-In . SVG Version: 6.00 Build 0)  -->
<svg version="1.1" id="Layer_1" xmlns="http://www.w3.org/2000/svg" xmlns:xlink="http://www.w3.org/1999/xlink" x="0px" y="0px"
	 viewBox="0 0 500 500" style="enable-background:new 0 0 500 500;" xml:space="preserve">
<style type="text/css">
	.st0{fill:#383838;}
</style>
<g>
	<g>
		<path class="st0" d="M495.6,141.8L82.3,92.3c-2.7-0.3-5.1,1.5-5.5,4.2L20,437.2c-0.5,2.8,1.5,5.4,4.3,5.8l428.4,54.8
			c2.8,0.4,5.3-1.6,5.6-4.4l41.6-346C500.3,144.6,498.3,142.1,495.6,141.8z M485.8,181.4c-23,11.2-55.4,30.5-65,36.3
			c-1.2,0.7-1,2.4,0.2,2.9c30.6,13.1,56.2,29.4,56.2,29.4l-6.4,40.8c-36.6-23.9-70.3-39-78.5-42.6c-0.7-0.3-1.4,0.4-1.1,1.1
			l5.2,12.4c5.3,12.3,45.6,109.3,50.5,122.1c5,12.9,11.7,12.3,11.7,12.3l-12,90.9l-316.7-39.1l294.8-0.6
			c-3.2-39.1-22.5-94.9-22.5-94.9c-24.3-62.1-34-84-37.6-91.3c-0.4-0.8-1.6-0.5-1.6,0.4c0.8,20.2,2.4,80.1,2.4,80.1
			c-2.4-3.1-4.4-3.3-5.7-3.1c-0.8,0.2-1.3,0.8-1.3,1.6c0.5,10,7.5,19.5,11.4,24.1c0.6,0.7-0.2,1.6-1,1.3c-7.1-2.9-9.7-2.9-9.7-2.9
			c-3.4,9.8,5.6,23.2,8.8,27.6c0.5,0.6-0.1,1.4-0.9,1.3c-7.9-1.7-17.8-15.4-17.8-15.4c-26.6-40.6-6.4-123.1-2.2-138.8
			c0.2-0.8-0.8-1.4-1.4-0.8c-10.3,10.4-49,60.5-49.5,60.7c-0.6,0.2,2.5-7.4-1.8-8c-2.1-0.3-3.3,2.1-3.9,4.7c-1.1,4.4-3,8.6-5.9,12.1
			c-12.8,15.4-36.5,35.5-45.7,43.1c-0.7,0.6-1.7-0.2-1.3-1c2.5-4.6,5.4-11.8,0.8-14.8c-4.9-3.1-9.6,11.8-12.1,21.3
			c-0.3,1-1.7,0.7-1.6-0.3c1-24.3,8.5-36.6,8.5-36.6c24.4-40.9,92.1-84.3,101.1-90c0.5-0.3,0.5-1,0-1.3c-14.8-10.3-50-6.4-61.9-4.8
			c-0.8,0.1-1.3-0.9-0.6-1.5c3.2-2.5,5.8-6.1,7.2-8.2c0.4-0.6-0.2-1.4-0.9-1.2c-21.6,5.4-97.4,4-101,2c-3.7-2.1,18.5-17.5,18.5-17.5
			c-11.8-2.7-31.2,11.2-37.8,16.3c-0.7,0.5-1.6-0.2-1.3-1c1.3-3.2,2.7-6.2,4.3-8.9c11.3-19.2,33-29.9,55.3-28.5
			c63.2,4.1,96.4,18.1,105.2,22.3c0.7,0.4,1.5-0.5,1.1-1.2l-38.2-67.5l63.7,7.2l20.9,53.8c0.3,0.9,1.6,0.6,1.6-0.3l-1.2-49l69.5,7
			l-29,36.7c-0.5,0.7,0.2,1.7,1,1.3l69.4-32.9h8.8L485.8,181.4z"/>
		<path class="st0" d="M36.4,262c1.2-1.8,9.9-36.2,9.9-36.2l2.9-143.8c0-0.9,0.8-1.6,1.7-1.6h389.4c0.9,0,1.6,0.7,1.7,1.6l2.3,44.8
			l9.9,0.7V73c0-2.8-2.2-5-5-5H42.8c-2.8,0-5,2.2-5,5L36.4,262z"/>
		<path class="st0" d="M29.6,306.8L0,55.3c-0.2-1.8,1.1-3.5,2.9-3.7L409.6,2.2c1.8-0.2,3.5,1.1,3.7,2.9l6.2,52l-9.7,0.4l-5.3-43.1
			c-0.1-0.9-0.9-1.6-1.9-1.5L12.2,60.4c-0.9,0.1-1.6,0.9-1.5,1.8l23.7,224.9L29.6,306.8z"/>
	</g>
</g>
</svg>
