<?xml version="1.0" encoding="utf-8"?>
<!-- Generator: Adobe Illustrator 23.0.2, SVG Export Plug-In . SVG Version: 6.00 Build 0)  -->
<svg version="1.1" id="Layer_1" xmlns="http://www.w3.org/2000/svg" xmlns:xlink="http://www.w3.org/1999/xlink" x="0px" y="0px"
	 viewBox="0 0 500 500" style="enable-background:new 0 0 500 500;" xml:space="preserve">
<style type="text/css">
	.st0{fill:#383838;}
</style>
<path class="st0" d="M305,232.5c34.4-6.9,75.7-33.3,75.7-77.2c0-25.9-12.7-46-32.3-58.7c-17-10.6-36.9-16.1-64.9-17.8V0h-43.2v78.1
	h-31.6V0h-43.2v78.1h-64.7v19.6c37.6,2.6,44.4,7.4,44.4,51.8V351c0,44.5-4.2,47.1-45,51.3v19.6h65.3V500h43.2v-78.1h31.6V500h43.2
	v-80.3c24.7-3.2,46.8-9.8,65.4-20c30.2-16.9,50.8-47.6,50.8-80.4C399.7,269.1,360.6,242.6,305,232.5z M222.5,105.6
	c4.2-2.6,12.2-4.2,24.8-4.2c29.1,0,59.3,17.5,59.3,63.5c0,39.2-18.5,60.8-68.7,60.8h-20.6V125.1C217.2,114,216.7,109.3,222.5,105.6z
	 M263.3,399.2c-28.6,0.5-46-11.1-46-49.2V248.4h18.5c59.3,0,85.2,24.3,85.2,75.6C320.9,373.3,292.3,398.7,263.3,399.2z"/>
</svg>
