<?xml version="1.0" encoding="utf-8"?>
<!-- Generator: Adobe Illustrator 23.0.2, SVG Export Plug-In . SVG Version: 6.00 Build 0)  -->
<svg version="1.1" id="Layer_1" xmlns="http://www.w3.org/2000/svg" xmlns:xlink="http://www.w3.org/1999/xlink" x="0px" y="0px"
	 viewBox="0 0 500 500" style="enable-background:new 0 0 500 500;" xml:space="preserve">
<style type="text/css">
	.st0{fill:#383838;}
</style>
<g>
	<path class="st0" d="M231.5,34.8l22.8,138.3c5.7,34.5,32.7,61.5,67.2,67.2L459.8,263l-138.3,22.8c-34.5,5.7-61.5,32.7-67.2,67.2
		l-22.8,138.3L208.7,353c-5.7-34.5-32.7-61.5-67.2-67.2L3.3,263l138.3-22.8c34.5-5.7,61.5-32.7,67.2-67.2L231.5,34.8z"/>
	<path class="st0" d="M388,0l10.8,65.9c2.7,16.4,15.6,29.3,32,32l65.9,10.8l-65.9,10.8c-16.4,2.7-29.3,15.6-32,32L388,217.4
		l-10.8-65.9c-2.7-16.4-15.6-29.3-32-32l-65.9-10.8l65.9-10.8c16.4-2.7,29.3-15.6,32-32L388,0z"/>
	<path class="st0" d="M93.5,322.8l8.8,53.7c2.2,13.4,12.7,23.9,26.1,26.1l53.7,8.8l-53.7,8.8c-13.4,2.2-23.9,12.7-26.1,26.1
		L93.5,500l-8.8-53.7c-2.2-13.4-12.7-23.9-26.1-26.1l-53.7-8.8l53.7-8.8c13.4-2.2,23.9-12.7,26.1-26.1L93.5,322.8z"/>
</g>
</svg>
