<?xml version="1.0" encoding="utf-8"?>
<!-- Generator: Adobe Illustrator 23.0.2, SVG Export Plug-In . SVG Version: 6.00 Build 0)  -->
<svg version="1.1" id="Layer_1" xmlns="http://www.w3.org/2000/svg" xmlns:xlink="http://www.w3.org/1999/xlink" x="0px" y="0px"
	 viewBox="0 0 500 500" style="enable-background:new 0 0 500 500;" xml:space="preserve">
<style type="text/css">
	.st0{fill:#010101;}
</style>
<g>
	<g>
		<g>
			<path class="st0" d="M248.5,101.2C268.7,53.4,314.8,20,368.4,20c72.2,0,124.2,61.8,130.8,135.4c0,0,3.6,18.3-4.2,51.2
				c-10.6,44.8-35.4,84.7-69,115L248.5,480L74,321.7c-33.5-30.4-58.4-70.2-69-115c-7.8-32.9-4.3-51.2-4.3-51.2
				C7.3,81.8,59.4,20,131.6,20C185.2,20,228.3,53.4,248.5,101.2L248.5,101.2z M248.5,101.2"/>
		</g>
	</g>
</g>
</svg>
