<?xml version="1.0" encoding="utf-8"?>
<!-- Generator: Adobe Illustrator 23.0.2, SVG Export Plug-In . SVG Version: 6.00 Build 0)  -->
<svg version="1.1" id="Layer_1" xmlns="http://www.w3.org/2000/svg" xmlns:xlink="http://www.w3.org/1999/xlink" x="0px" y="0px"
	 viewBox="0 0 500 500" style="enable-background:new 0 0 500 500;" xml:space="preserve">
<style type="text/css">
	.st0{fill:#383838;}
</style>
<g>
	<path class="st0" d="M20,0h190c11,0,20,9,20,20v190c0,11-9,20-20,20H20c-11,0-20-9-20-20V20C0,9,9,0,20,0z"/>
	<path class="st0" d="M290,0h190c11,0,20,9,20,20v190c0,11-9,20-20,20H290c-11,0-20-9-20-20V20C270,9,279,0,290,0z"/>
	<path class="st0" d="M20,270h190c11,0,20,9,20,20v190c0,11-9,20-20,20H20c-11,0-20-9-20-20V290C0,279,9,270,20,270z"/>
	<path class="st0" d="M290,270h190c11,0,20,9,20,20v190c0,11-9,20-20,20H290c-11,0-20-9-20-20V290C270,279,279,270,290,270z"/>
</g>
</svg>
