<?xml version="1.0" encoding="utf-8"?>
<!-- Generator: Adobe Illustrator 23.0.2, SVG Export Plug-In . SVG Version: 6.00 Build 0)  -->
<svg version="1.1" id="Layer_1" xmlns="http://www.w3.org/2000/svg" xmlns:xlink="http://www.w3.org/1999/xlink" x="0px" y="0px"
	 viewBox="0 0 500 500" style="enable-background:new 0 0 500 500;" xml:space="preserve">
<style type="text/css">
	.st0{fill:#383838;}
</style>
<path class="st0" d="M250,0C111.9,0,0,111.9,0,250c0,138.1,111.9,250,250,250s250-111.9,250-250C500,111.9,388.1,0,250,0z
	 M470.2,189.9l-32,55.4l-86.6-1.3l-45.2-78.3l1-0.7l42.7-73.4l63.6-0.7C440.2,118.2,459.9,152.1,470.2,189.9z M309,29.4L341.3,86
	l-44.1,73h-92.1l-42.6-73.5l31.6-56.9c17.9-4.5,36.6-6.9,55.8-6.9C270.4,21.7,290.2,24.4,309,29.4z M86.8,90.4h66.5l41.1,73.8
	l-46.3,80.2l-83.9,0.1l-33.5-55.9l-0.7,0C40.6,151,60.4,117.5,86.8,90.4z M30.4,312.4l0.2,0.1l33.3-57.7l84.6,1.3l46,79.6
	l-42.4,72.8l-65.2,0.7l-0.2,0.2C60.5,382.7,40.9,349.5,30.4,312.4z M193.5,471.2l-32.6-57.1L205,341h92l0,0.2l42.6,73.5l-31.2,56.1
	c-18.7,4.9-38.2,7.6-58.4,7.6C230.5,478.3,211.6,475.8,193.5,471.2z M413,409.8h-64.2L306.6,334l45.4-78.7l1,0.5l84.9-0.1l32.5,54.2
	C460,348.1,439.9,382.3,413,409.8z"/>
</svg>
