<?xml version="1.0" encoding="utf-8"?>
<!-- Generator: Adobe Illustrator 23.0.2, SVG Export Plug-In . SVG Version: 6.00 Build 0)  -->
<svg version="1.1" id="Layer_1" xmlns="http://www.w3.org/2000/svg" xmlns:xlink="http://www.w3.org/1999/xlink" x="0px" y="0px"
	 viewBox="0 0 500 500" style="enable-background:new 0 0 500 500;" xml:space="preserve">
<style type="text/css">
	.st0{fill:#383838;}
</style>
<g>
	<path class="st0" d="M409.1,0H90.9c-25,0-45.5,20.5-45.5,45.5v409.1c0,25,20.5,45.5,45.5,45.5h318.2c25,0,45.5-20.5,45.5-45.5V45.5
		C454.5,20.5,434.1,0,409.1,0z M420.5,443.2c0,12.6-10.2,22.7-22.7,22.7H102.3c-12.6,0-22.7-10.2-22.7-22.7V56.8
		c0-12.6,10.2-22.7,22.7-22.7h295.5c12.6,0,22.7,10.2,22.7,22.7V443.2z"/>
	<path class="st0" d="M263.1,102.1H124c-5.5,0-10-4.5-10-10V80.3c0-5.5,4.5-10,10-10h139.1c5.5,0,10,4.5,10,10v11.8
		C273.1,97.6,268.6,102.1,263.1,102.1z"/>
	<path class="st0" d="M374.5,432.2H124c-5.5,0-10-4.5-10-10V171.6c0-5.5,4.5-10,10-10h250.6c5.5,0,10,4.5,10,10v250.6
		C384.5,427.7,380.1,432.2,374.5,432.2z"/>
</g>
</svg>
