<?xml version="1.0" encoding="utf-8"?>
<!-- Generator: Adobe Illustrator 23.0.2, SVG Export Plug-In . SVG Version: 6.00 Build 0)  -->
<svg version="1.1" id="Layer_1" xmlns="http://www.w3.org/2000/svg" xmlns:xlink="http://www.w3.org/1999/xlink" x="0px" y="0px"
	 viewBox="0 0 500 500" style="enable-background:new 0 0 500 500;" xml:space="preserve">
<style type="text/css">
	.st0{fill:#383838;}
</style>
<path class="st0" d="M250,0C111.9,0,0,111.9,0,250c0,138.1,111.9,250,250,250s250-111.9,250-250C500,111.9,388.1,0,250,0z
	 M408.3,424.3c-36.4-20.7-95-34.5-95-34.5c-12-11-6.5-51.7-6.5-51.7c20.1-14.6,19.6-55.7,19.6-55.7c13.1-6,15.6-33.6,15.6-33.6
	c15.6-31.1-3.5-30.6-3.5-30.6s12.5-69.3,3-91.9c-9.5-22.6-37.7-48.7-84.8-48.7c-47.2,0-80.8,35.6-80.8,35.6
	c-32.6,15.1-13.1,101.4-13.1,101.4c-5-0.5-6,2.5-6,2.5c-15.6,5.5,4.5,39.7,4.5,39.7c4.5,26.6,19.6,25.1,19.6,25.1
	c-3,52.2,16.6,54.7,16.6,54.7c1.5,57.2-18.1,58.2-18.1,58.2c-31.9,3.4-75.6,23.9-87.3,29.6C44.4,381.4,14.5,319.2,14.5,250
	C14.5,119.9,119.9,14.5,250,14.5S485.5,119.9,485.5,250C485.5,319.1,455.7,381.3,408.3,424.3z"/>
</svg>
