<?xml version="1.0" encoding="utf-8"?>
<!-- Generator: Adobe Illustrator 23.0.2, SVG Export Plug-In . SVG Version: 6.00 Build 0)  -->
<svg version="1.1" id="Layer_1" xmlns="http://www.w3.org/2000/svg" xmlns:xlink="http://www.w3.org/1999/xlink" x="0px" y="0px"
	 viewBox="0 0 500 500" style="enable-background:new 0 0 500 500;" xml:space="preserve">
<style type="text/css">
	.st0{fill:#383838;}
</style>
<path class="st0" d="M481.9,453.7L351.1,322.9c30.1-34.3,48.4-79.1,48.4-128.2C399.5,87.2,312.4,0,204.9,0
	C97.3,0,10.2,87.2,10.2,194.7s87.2,194.7,194.7,194.7c38.7,0,74.7-11.4,105-30.9l133.7,133.7c10.5,10.5,27.8,10.5,38.4,0
	C492.5,481.5,492.5,464.3,481.9,453.7z M59.6,194.7c0-80.2,65-145.3,145.3-145.3s145.3,65,145.3,145.3c0,80.2-65,145.3-145.3,145.3
	S59.6,274.9,59.6,194.7z"/>
</svg>
