<?xml version="1.0" encoding="utf-8"?>
<!-- Generator: Adobe Illustrator 23.0.2, SVG Export Plug-In . SVG Version: 6.00 Build 0)  -->
<svg version="1.1" id="Layer_1" xmlns="http://www.w3.org/2000/svg" xmlns:xlink="http://www.w3.org/1999/xlink" x="0px" y="0px"
	 viewBox="0 0 500 500" style="enable-background:new 0 0 500 500;" xml:space="preserve">
<style type="text/css">
	.st0{fill:#383838;}
</style>
<g>
	<g>
		<path class="st0" d="M58.6,473.1H20.1c-10.6,0-19.2-8.7-19.2-19.2V126.9c0-10.6,8.7-19.2,19.2-19.2h38.5
			c10.6,0,19.2,8.7,19.2,19.2v326.9C77.8,464.4,69.2,473.1,58.6,473.1z"/>
		<path class="st0" d="M481.9,470l-38.3,4c-10.5,1.1-20-6.6-21.1-17.1l-36.9-350.6c-1.1-10.5,6.6-20,17.1-21.1l38.3-4
			c10.5-1.1,20,6.6,21.1,17.1L499,448.8C500.1,459.4,492.4,468.9,481.9,470z"/>
		<path class="st0" d="M347.1,472.8h-57.7c-10.6,0-19.2-8.7-19.2-19.2V43.3c0-10.6,8.7-19.2,19.2-19.2h57.7
			c10.6,0,19.2,8.7,19.2,19.2v410.3C366.3,464.2,357.6,472.8,347.1,472.8z"/>
		<path class="st0" d="M231.7,146.1H116.3c-10.6,0-19.2,8.7-19.2,19.2v288.5c0,10.6,8.7,19.2,19.2,19.2h115.4
			c10.6,0,19.2-8.7,19.2-19.2V165.3C250.9,154.8,242.3,146.1,231.7,146.1z M238.1,427.9H109.9v-12.8h128.2V427.9z M238.1,204.3
			H109.9v-12.8h128.2V204.3z"/>
	</g>
</g>
</svg>
